<?xml version="1.0" encoding="UTF-8"?>
<!DOCTYPE svg PUBLIC "-//W3C//DTD SVG 1.1//EN" "http://www.w3.org/Graphics/SVG/1.1/DTD/svg11.dtd">
<!-- Creator: CorelDRAW 2018 (64-Bit) -->
<svg xmlns="http://www.w3.org/2000/svg" xml:space="preserve" width="185.655mm" height="62.7724mm" version="1.1" style="shape-rendering:geometricPrecision; text-rendering:geometricPrecision; image-rendering:optimizeQuality; fill-rule:evenodd; clip-rule:evenodd"
viewBox="0 0 17491.13 5913.98"
 xmlns:xlink="http://www.w3.org/1999/xlink">
 <defs>
  <style type="text/css">
   <![CDATA[
    .fil0 {fill:black;fill-rule:nonzero}
   ]]>
  </style>
 </defs>
 <g id="Layer_x0020_1">
  <metadata id="CorelCorpID_0Corel-Layer"/>
  <g>
   <path class="fil0" d="M10170.83 3657.34c-0.14,-0.18 -0.14,-0.18 0,0l0 0zm6680.88 -185.89c-0.32,-0.51 -0.32,-0.51 0,0l0 0zm-8243.64 -7.73c0.09,-0.08 0.09,-0.08 0,0l0 0zm-626.34 -74.5l36 53.99c4,4 6,8.99 6,15.01 0.67,8.89 6.03,14.77 11.99,20.96 37.37,-17.86 73.51,-37.52 111.75,-53.16 29.61,-12.14 55.61,-27.07 85.98,-39.07 29.83,-11.94 46.55,-21.5 79.58,-21.62 10.07,-0.05 -5.37,-9.73 2.78,-2.04 2.69,2.54 8.38,2.8 7.71,1.82 -3.4,-5.08 -5.84,-6.84 -9.72,-13.57 -10.21,-17.76 -15.72,-28.53 -23.27,-47.53 -4.96,-12.49 -2.96,-34.61 17.36,-45.78 25.42,-13.9 52.84,-7.13 70.96,14.93 19.44,24.66 22.01,43.1 22.85,73.65 0.16,-13.91 1.98,2.52 -3.41,6.13 -11.43,7.71 17.42,40.51 20.71,45.02 5.61,7.73 33.29,46.75 35.51,53.73 3.84,11.83 -1.54,12.13 10.89,25.15l2.26 2.36c22.46,-10.53 44.24,-20.36 66.2,-32.11 31.66,-16.2 66.08,-30.27 98.67,-45.97 26.21,-12.63 66.27,-31.13 94.73,-35.08l3.52 -0.38 8.06 -0.44 4.78 0 5.96 0 0.01 -0.08 -5.97 -5.94 5.97 5.94c54.69,-114.35 67.65,-193.49 97.97,-312.84 1.52,-5.96 3.01,-11.48 4.54,-16.81l89.91 -332.94c43.36,-166.7 90,-328.93 140.25,-495.36 7.59,-25.21 15.07,-50.47 22.37,-75.79 35.38,-125.8 75.35,-249.14 115.7,-373.38 31.6,-97.37 65.13,-193.04 104.11,-287.75 33.27,-80.2 69.27,-158 109.08,-235.2 43.2,-75.42 62.42,-129.35 144.9,-175.42 27.68,-15.45 52.63,-12 81.53,0.41 70.85,33.81 38.58,155.35 16.85,210.76 -16.41,41.83 -37.21,81.17 -56.99,121.39 -41.6,83.88 -92.95,166.21 -138.94,248.34 -27.72,49.44 -52.59,90.94 -84.38,137.98 -59.35,88.93 -118.85,183 -186.71,265.35 -39.68,48.07 -64.56,112.31 -80.06,172.13 -35.85,128.3 -75.93,249.94 -107.68,380.04 -7.69,31.45 -16.52,62 -25.15,92.74l-91.73 346.63c-16.89,57.02 -31.47,117.74 -45.54,175.31 -4.07,16.75 -4.98,32.43 -9.52,49.78 -8.55,28.03 -5.16,6.97 28.59,-7.92 11.47,-5.03 16.23,-9.63 30.54,-15.18 18.6,-7.23 81.96,-28.95 95.07,-5.8 13.2,23.32 -59.05,59.64 -75.83,67.2 -17.85,8.21 -78.72,37.43 -89.8,49.62 -26.62,39.48 -55.6,122.26 -35.37,168.21 117.71,151.72 221.24,172.84 403.69,181.35 73.5,3.4 106.26,15.07 6.95,29.74 -26.57,3.91 -55.17,8.06 -81.9,10.47 -84.9,5.05 -144.28,-17.5 -218.67,-55.97 -28.49,-15.37 -53.19,-33.65 -78.79,-53.23 -2.85,-2.2 -5.65,-5.13 -8.19,-7.64 -9.89,-10.13 -33.97,-35.06 -44.53,-42.05 -8.06,-0.88 -17.28,31.66 -18.83,36.08 -28.63,98.33 -45.89,209.17 -70.39,310.81 -16.08,66.74 -31.48,133.78 -48.27,200.29l-2.42 9.61c-5.74,22.51 -11.13,44.92 -16.23,67.59 -1.52,6.87 -3.17,13.31 -4.97,20.08 -7.37,26.54 -96.31,363.14 -110.63,313.28 -12.27,-105.16 120.25,-616.25 154.45,-754.92 14.51,-58.73 31.15,-116.86 43.5,-176.07 1.72,-8.56 3.54,-16.91 5.54,-25.44 1.76,-7.08 30.01,-194.5 29.95,-195.28l-15.09 11.79c-22.34,17.44 -45.88,26.29 -71.42,39.36 -38.44,19.76 -75.97,39.35 -115.82,56.43 -19.51,8.46 -50.23,21.08 -40.68,47.64 17.96,49.96 20.34,92.35 -28.55,125.02 -28.64,19.15 -58.39,18.44 -91.64,17.59 -16.39,-0.44 -32.93,-1.5 -48.99,-4.95 -37.73,-8.76 -60.71,-27.5 -42.06,-67.65 21.08,-41.01 32.61,-46.92 64.21,-77.37 23.2,-22.34 29.56,-55.37 29.78,-86.4 -0.06,-11.83 -4.92,-16.62 -11.43,-26 -7.45,-10.75 -16.07,-21.38 -24.22,-31.61 -22.58,-22.58 -6.69,-12.62 -30.89,-0.92 -5.7,2.76 -11.21,5 -17,7.92 -36.91,19.8 -70.69,39.31 -108.7,57.73 -21.12,10.25 -43.07,21.6 -64.14,31.39 -12.53,5.81 -18.53,5.53 -30.03,13.58 -1.21,0.88 -2.35,1.64 -3.61,2.44 -53.07,28.67 -3.64,49.91 -13.43,102.06l-0.9 4.86 -1.16 5.2 -1.37 5.31c-25.68,89.76 -202.23,76.65 -224.27,30.36l-2.57 -6.62c-9.61,-47.43 68.22,-92.75 88.78,-132.55 9.79,-18.94 11.27,-39.17 13.03,-60.01 0.69,-15.46 -2.1,-15.09 -10.73,-28.15 -10.08,-14.95 -20.45,-29.76 -34.87,-40.86 -85.72,79.96 -122.48,105.86 -221.93,165.28l-14.59 8.72c-101.74,60.9 -352.39,205.88 -450.99,93.82l-8.95 -10.18c-14.29,-18.39 -21.8,-35.03 -31.31,-55.95l-5.34 -12.85c-0.16,0.06 -0.32,0.08 -0.5,0.08 -0.53,0 -0.97,-0.34 -1.17,-0.8 -12.07,-28.72 -18.21,-41.32 -25.5,-38.26 -7.05,2.96 -15.99,18.97 -32.05,47.8l-7.9 14.13 -12.81 22.83c-63.72,112.26 -129.7,215.12 -202.01,313.27 -72.35,98.18 -150.99,191.7 -239.97,285.3l-0.04 0.06c-9.51,9.87 -19.04,19.76 -28.62,29.59 -9.57,9.85 -19.16,19.68 -28.77,29.51 -107.6,109.95 -284.5,246.51 -468.52,330.01 -138.51,62.84 -281.1,95.64 -401.28,64.46l-0.02 0c-20.13,-5.71 -36.83,-12.25 -52.43,-20.74 -15.59,-8.51 -30.1,-18.97 -45.84,-32.55l-0.04 -0.04c-79.5,-74.62 -114.13,-182.34 -127.02,-296.19 -12.89,-113.72 -4.11,-233.55 3.22,-332.63 14.73,-198.47 48.76,-398.48 82.34,-595.96 6.38,-37.54 12.77,-75.01 18.97,-112.35l0.02 -0.04c14.86,-89.65 29.81,-190.9 40.06,-292.26 10.23,-101.35 15.77,-202.83 11.79,-292.94l-0.18 -2.97c-0.92,-13.76 -4.15,-43.55 -11.53,-69.66 -7.24,-25.7 -18.48,-47.78 -35.31,-46.91l-0.32 0.02c-112.33,7.56 -468.92,644.21 -589.84,860.1 -13.53,24.16 -24.1,43.06 -31.04,55.15l-16.52 28.83c-214.57,374.86 -674.4,1178.13 -1048.8,1324.83l-0.09 0.03c-18.06,6.18 -34.45,10.4 -51.09,12.83 -16.64,2.42 -33.53,3.06 -52.61,2.08l-0.04 0c-20.56,-1.62 -37.36,-5.81 -52.95,-12.78 -15.58,-6.96 -29.93,-16.68 -45.65,-29.39l-0.14 -0.12c-186.26,-166.04 -63.7,-933.09 -23.5,-1184.68l4.24 -26.54c12.21,-76.88 25.15,-153.47 38.5,-229.92 13.24,-76.06 27.03,-152.77 40.88,-229.54 27.48,-152.41 55.29,-304.77 83.11,-457.13 37.76,-206.89 75.54,-413.77 112.73,-622.27 23.95,-119.74 39.81,-243.11 62.32,-363.22 5.98,-36.44 11.85,-73.32 17.56,-110.55 5.66,-36.86 11.16,-73.85 16.47,-110.91 5.31,-37.2 10.45,-74.29 15.36,-111.25 4.91,-36.88 9.65,-74 14.22,-111.38 9.09,-74.32 16.2,-149.01 21.25,-224.03 5.05,-74.94 8.07,-150.19 9.07,-225.73l-0.02 -42.48c0,-6.87 -0.24,-13.74 -0.74,-20.55 -0.48,-6.88 -1.22,-13.75 -2.2,-20.56 -0.03,-0.46 -0.08,-0.98 -0.1,-1.42 0,-15.15 -0.38,-30.56 -1.12,-46.26 -0.74,-15.87 -1.87,-32.05 -3.34,-48.53 -0.73,-7.92 -1.6,-16.07 -2.62,-24.42 -1.01,-8.25 -2.15,-16.64 -3.43,-25.09 -1.26,-8.42 -2.66,-16.69 -4.14,-24.83 -1.49,-8.2 -3.11,-16.44 -4.85,-24.66l0 -0.05c-1.72,-8.1 -3.6,-16.11 -5.62,-24.01 -2.06,-8.06 -4.32,-16.12 -6.73,-24.15 -2.4,-7.92 -4.93,-15.68 -7.58,-23.3 -2.65,-7.61 -5.48,-15.12 -8.43,-22.53 -2.98,-7.42 -6.12,-14.59 -9.42,-21.46 -3.31,-6.86 -6.76,-13.44 -10.39,-19.74 -3.65,-6.28 -7.47,-12.33 -11.46,-18.14 -3.99,-5.8 -8.15,-11.35 -12.49,-16.68 -7.67,-7.65 -15.35,-14.47 -23,-20.43 -7.67,-5.99 -15.34,-11.15 -22.98,-15.44l-0.71 -0.45c-3.5,-1.92 -7.19,-3.61 -11.07,-5.09 -3.86,-1.46 -7.92,-2.69 -12.15,-3.68 -4.46,-1.06 -9.1,-1.85 -13.91,-2.38 -4.79,-0.52 -9.77,-0.78 -14.96,-0.78 -14.41,0 -29.24,1.94 -44.44,5.8 -15.25,3.89 -30.89,9.71 -46.88,17.48 -8.05,3.89 -16.1,8.01 -24.17,12.31 -8.22,4.39 -16.5,9.04 -24.84,13.92l-0.86 0.44c-7.79,4.58 -15.66,9.4 -23.56,14.43 -8.05,5.11 -16.02,10.38 -23.92,15.79 -31.46,21.87 -58.92,43.85 -85.39,66.97 -26.46,23.12 -51.99,47.43 -79.53,73.93 -1.58,1.53 -3.12,2.35 -4.98,3.38 -3.06,1.69 -7.21,3.95 -14.36,10.98 -48.92,47.98 -89.56,93.62 -134.19,143.69l-10.34 11.63c-144.6,162.18 -287.07,340.83 -424.68,523.53 -137.68,182.79 -270.41,369.53 -395.47,547.92 -108.74,155.12 -216.3,311.71 -323.89,468.29l-19.5 28.41c-41.98,61.46 -84.46,123.14 -126.9,184.73 -81.47,118.28 -162.75,236.31 -243.17,356.7 -13.81,20.68 -27.64,41.31 -41.48,61.94 -13.74,20.45 -27.62,41.02 -41.7,61.79 -98.39,145.02 -197.15,289.66 -296.82,433.59 -99.8,144.12 -200.47,287.45 -302.47,429.67l-0.08 0.08c-70.73,98.47 -142.36,195.82 -215.54,291.94 -73.19,96.18 -147.98,191.14 -224.98,284.9 -9.65,11.67 -19.44,23.43 -29.39,35.25l-0.06 0.07c-10.05,11.97 -20.27,24.02 -30.65,36.17 -10.23,11.96 -20.7,24.07 -31.39,36.28 -10.63,12.14 -21.48,24.4 -32.53,36.75 -11.07,12.35 -22.14,24.56 -33.17,36.61 -11.21,12.21 -22.48,24.36 -33.81,36.46 -42.28,44.85 -110.68,114.92 -185.35,171.46 -74.83,56.65 -156.03,99.73 -223.79,90.44 -38.51,-5.29 -68.76,-25.45 -92.03,-52.93 -29.24,-34.51 -47.45,-80.53 -57.21,-122.92 -15.74,-68.54 -16.5,-165.59 -9.47,-266.91 9.69,-139.4 34.07,-286.94 54.27,-379.34l0.04 -0.1c19.26,-86.18 41,-178.63 64.74,-270.46 23.72,-91.9 49.46,-183.17 76.61,-266.91 1.66,-5.07 3.36,-10.27 5,-15.18 5.57,-16.73 9.85,-29.67 14.75,-50.08 6.3,-26.21 21.7,-71.27 35.45,-111.53 7.1,-20.76 13.77,-40.28 18.54,-55.35 69.96,-220.71 149.32,-438.19 228.67,-655.69l9.79 -26.82c4.22,-11.55 5.59,-16.57 4.91,-16.82 -5.45,-1.98 -62.09,97.1 -78.12,125.12 -2.28,4.02 -3.76,6.6 -4.15,7.24l-0.05 0.08c-31.09,51.15 -62.5,102.1 -94.29,152.89 -31.87,50.94 -64,101.48 -96.43,151.66l-0.07 0.09c-1.52,2.36 -13.13,20.48 -24.34,31.55 0.06,0.54 -0.28,1.06 -0.8,1.26l-0.3 0.2 -0.39 0.2 -0.36 0.12c-3.81,3.47 -7.49,5.99 -10.63,6.6 -4.41,0.89 -7.83,-1.38 -9.29,-8.67 -0.04,-0.25 -0.02,-0.5 0.08,-0.7 8.86,-30.04 197.33,-339.4 304.21,-514.85 27.86,-45.72 50.17,-82.36 62.18,-102.32 41.7,-69.39 72.31,-146.88 102.64,-223.67 9.12,-23.06 18.19,-46.07 27.7,-69.12l12.83 -31.09c46.09,-111.81 92.05,-223.29 141.54,-333.82 12.26,-27.29 24.77,-53.51 37.3,-79.74 16.32,-34.19 32.67,-68.44 48.32,-104.68 24.65,-57.19 52.48,-113.39 80.38,-169.79 22.3,-45.04 44.66,-90.23 65.53,-136.13l5.75 -12.65c20.02,-43.19 105.02,-208.04 188.26,-329.26 48.57,-70.73 96.6,-126.68 131,-135.19 3.38,-0.84 6.79,-1.21 10.16,-1.12 9.15,0.2 18.01,3.6 25.16,9.38 7.18,5.78 12.65,13.95 15.07,23.7 0.94,3.86 1.42,7.97 1.32,12.29 -0.6,27.87 -19.84,82.7 -45.08,142.43 -37.62,89.11 -88.61,189.25 -110.85,227 -13.92,23.54 -26.61,48.39 -39.23,73.07 -6.21,12.19 -12.42,24.33 -18.62,36.04l-0.05 0.08c-11.53,21.22 -22.4,41.46 -33.03,61.81 -10.61,20.36 -21,40.86 -31.54,62.55l0 0.02c-10.5,20.84 -22.06,41.11 -33.68,61.46 -10.02,17.55 -20.06,35.15 -29.53,53.33 -19.63,37.69 -42.9,76.83 -66.14,115.97 -17.51,29.49 -35,58.96 -50.97,87.79 -24.02,43.54 -49.45,86.3 -74.99,129.23 -24.28,40.84 -48.66,81.86 -71.97,123.74 -6.94,12.42 -14.25,24.68 -21.57,36.92 -5.94,9.99 -11.9,19.95 -17.67,30.06 -22.24,39.12 -43.77,73.43 -64.6,106.64 -41.12,65.54 -79.53,126.78 -115.39,211.92 -4.23,10.05 -8.11,19.15 -11.89,28.03 -10.41,24.44 -20.2,47.42 -29.61,71.69 0.2,0.5 0.08,1.08 -0.36,1.44l-0.28 0.24c-4.13,10.69 -8.19,21.64 -12.19,33.1 -12.15,34.79 -25.61,69.38 -39.14,104.13 -13.58,34.93 -27.25,70.07 -39.72,105.73 -7.14,20.42 -13.97,40.17 -20.8,59.91 -9.54,27.55 -19.08,55.1 -28.52,81.84 -10.09,28.5 -67.98,193.24 -108.02,310.88 -22.05,64.82 -38.7,115.27 -38.94,120.59 -0.48,10.79 -45.28,150.12 -65.94,214.36 -5.41,16.81 -9.15,28.42 -10.03,31.38l-0.04 0.1c-19.36,63.9 -37.82,127.16 -55.27,190.7 -17.46,63.48 -33.95,127.3 -49.49,192.43 -5.86,24.74 -11.43,49.46 -16.69,74.13 -5.24,24.56 -10.15,49.05 -14.75,73.49 -4.64,24.72 -9.03,49.49 -13.13,74.32 -4.1,24.83 -7.9,49.74 -11.45,74.73l0 0.04c-8.13,59.1 -21.28,167.74 -21.32,274.1 -0.04,106.23 12.97,210.2 57.07,260.16 7.17,8.15 18.99,17.62 31.82,25.34 11.38,6.85 23.55,12.33 33.96,14.3 118.68,22.5 310.64,-183.56 386.29,-264.78l3.51 -3.78 1.71 -2.41 0.16 -0.2 6.05 -6.04c0.64,-0.65 1.38,-1.19 2.12,-1.63 0.68,-0.38 1.37,-0.66 2.1,-0.88 18.38,-20.76 36.59,-41.52 54.63,-62.28 18.24,-21 36.29,-41.97 54.13,-62.9 34.72,-40.86 67.5,-80.21 99.64,-119.97 32.15,-39.76 63.7,-79.98 95.95,-122.58 23.06,-30.49 47.13,-61.4 71.22,-92.37 28.08,-36.05 56.21,-72.17 83.22,-108.24 131.48,-176.35 256.26,-356.14 381.11,-535.99 78.98,-113.8 157.98,-227.63 238.59,-340.46l0.04 -0.07c53.87,-76.03 106.39,-155.39 158.87,-234.71 37.96,-57.32 75.91,-114.65 114.35,-170.7 47.84,-70.07 96.59,-140.93 145.35,-211.86 109.93,-159.85 220.09,-320.04 326.83,-481.04 39.3,-59.31 81.6,-117.45 123.92,-175.6 34.97,-48.09 69.96,-96.19 103.24,-144.9 29.64,-43.34 59.75,-85.91 89.92,-128.53 24.61,-34.77 49.23,-69.57 73.85,-105.2 80.46,-115.91 163.34,-225.77 248.39,-333.74 85,-107.9 172.27,-214.04 261.43,-322.48 34.21,-41.59 74.67,-88.08 116.18,-133.93 43.83,-48.43 88.79,-96.16 128.74,-136.72 25.18,-25.55 56.27,-54.08 88.63,-81.38 31.13,-26.27 63.44,-51.43 92.77,-71.71 8.95,-6.16 17.94,-12.05 26.93,-17.71 8.95,-5.62 17.93,-10.99 26.86,-16.1 8.87,-5.11 17.86,-9.97 26.85,-14.61 8.99,-4.61 18.03,-9.01 27.12,-13.15 9.13,-4.18 18.19,-7.83 27.16,-10.98 9.04,-3.16 17.94,-5.77 26.71,-7.87 8.92,-2.12 17.73,-3.72 26.43,-4.8 8.67,-1.05 17.19,-1.6 25.6,-1.6 8.97,0 17.68,0.56 26.11,1.64 8.45,1.08 16.58,2.69 24.4,4.84 7.87,2.18 15.39,4.88 22.58,8.11 7.19,3.26 14.04,7.07 20.54,11.38 6.31,4.21 12.44,8.81 18.3,13.74 5.87,4.95 11.48,10.23 16.8,15.82 5.19,5.45 10.15,11.23 14.84,17.34 4.64,6.05 9.04,12.41 13.17,19.06 1.22,1.32 2.24,2.64 3.04,3.94 0.76,1.28 1.34,2.56 1.68,3.83l1.76 1.99c4.18,6.27 8.09,12.65 11.78,19.15 3.68,6.47 7.08,13.06 10.2,19.7l0.03 0.06c3.16,6.71 6.04,13.5 8.65,20.34 2.62,6.87 4.97,13.84 7.07,20.92 2.07,7 4.02,14.07 5.86,21.2 1.8,7.01 3.47,13.97 4.97,20.86 1.18,5.37 2.28,10.83 3.33,16.39 1.04,5.35 1.98,10.75 2.85,16.16l5.66 33.43c1.14,7.25 2.2,14.43 3.18,21.49 0.98,7.18 1.88,14.26 2.7,21.2 0.73,2.6 1.3,5.62 1.68,9.06 0.38,3.45 0.57,7.31 0.57,11.57l-0.16 1.45c0.8,7.18 1.54,14.39 2.2,21.68 0.66,7.35 1.24,14.61 1.72,21.77 0.76,11.26 1.36,22.58 1.72,33.94 0.4,11.27 0.59,22.44 0.59,33.53l0 0.04c0.49,10.66 0.87,21.19 1.12,31.59 0.26,10.5 0.39,20.71 0.39,30.61 0,9.93 -0.12,19.91 -0.39,29.91 -0.25,10.09 -0.64,20.04 -1.16,29.83l0 0.04c-0.68,25.69 -1.54,51.19 -2.52,76.49 -1.02,25.34 -2.2,50.53 -3.51,75.49l0 6.92c0,4.27 -0.14,9 -0.42,14.18 -0.26,5.22 -0.66,10.77 -1.18,16.66l-1.42 14.15 -1.56 23.99c-2.52,37.33 -5.68,74.71 -9.47,112.14 -3.79,37.5 -8.22,75.01 -13.27,112.53 -0.02,2.62 -0.25,5 -0.68,7.12 -0.42,2.13 -1.05,4.05 -1.87,5.71l-0.48 1.9c-0.02,10.65 -1.08,19.92 -2.3,30.19 -0.8,7.01 -1.37,9.39 -3.15,16.43l-0.62 10.92c0,1.59 -0.13,3.34 -0.38,5.18 -0.25,1.82 -0.62,3.72 -1.08,5.72l-2.48 19.78c-0.76,5.5 -1.6,10.87 -2.47,16.11 -0.91,5.39 -1.87,10.62 -2.85,15.68l-3.33 24.63c-11.51,117.39 -33.51,273.18 -57.45,388.44 -0.14,0.76 -0.37,1.51 -0.67,2.19 -0.27,0.62 -0.63,1.22 -1.02,1.78 -3.6,22.18 -7.3,44.19 -11.07,66.06 -3.79,21.92 -7.71,43.98 -11.75,66.11 -22.74,131.64 -45.9,261.96 -69.75,392.27 -23.86,130.27 -48.39,260.29 -73.89,391.43 -33.62,173.96 -66.31,350.76 -96.71,527.92 -30.39,177.19 -58.44,354.71 -82.79,530.15 -7.28,52.61 -13.25,109.86 -19.08,165.83 -2.71,26 -5.4,51.75 -8.14,76.43l0 0.01c-9.82,90.64 -18.62,200.27 -19.68,307.73 -0.82,82.69 2.92,164.13 14.27,234.64 7.85,48.89 24.1,109.27 56.83,149.94 23.61,29.37 55.88,48.43 99.86,45.4 187.74,-18.48 328.74,-191.54 448.41,-338.38 20.54,-25.2 40.47,-49.65 59.85,-72.38 22.39,-26.25 46.13,-59.84 68.96,-92.19 14.18,-20.09 28.03,-39.68 41.08,-56.82 146.46,-198.95 284.75,-434.69 413.95,-654.96 20.3,-34.61 40.4,-68.86 59.5,-101.23l0.03 -0.08c40.65,-69.07 80.43,-138.83 120.17,-208.58 121.13,-212.54 242.18,-424.99 390.31,-620.19l2.67 -3.53c38.76,-51.15 116.73,-154.12 188.36,-137.54 89.58,20.7 77.81,254.8 73.51,340.48 -0.25,4.98 -0.48,9.47 -0.66,13.29 -5.54,107.94 -20.76,204.98 -36.5,305.57 -5.88,37.55 -11.84,75.59 -17.43,115.09 -6.47,44.52 -13.68,88.18 -20.89,131.77 -10.41,63.02 -20.81,125.86 -28.9,191.25l-0.02 0.1c-5.11,40.32 -10.5,78.64 -15.77,116.19 -14.57,103.76 -28.33,201.73 -32.73,314.97l-0.14 3.52c-6.23,161.06 -14.11,364.93 90.16,499.08 32.27,41.48 80.4,61.83 132.83,68.75 68.86,9.08 145.12,-4.99 202.61,-24.73l0.07 -0.02c67.16,-22.89 118.37,-42.5 167.83,-65.98 49.47,-23.49 97.24,-50.87 157.51,-89.3 157.7,-103.98 296.43,-233.3 420.69,-376.24 124.26,-142.97 234.06,-299.54 333.8,-457.99 37.56,-59.64 69.44,-119.72 101.2,-179.57 4.32,-8.13 8.71,-16.4 14.75,-27.76 0.34,-0.6 1.11,-0.85 1.71,-0.51 21.07,-39.49 42.46,-78.81 65.77,-117.8 21.36,-33.87 66.76,-97.24 30.67,-5.55 -12.33,29.31 -22.4,52.67 -30.37,83.76 -22.94,112.11 -64.94,294.07 118.86,272.61 139.65,-19.7 296.22,-125.72 419.14,-197.61 26.82,-16.95 90.44,-70.12 121.77,-66.68 -102.37,-114.97 16.46,-150.2 53.17,-90.91 14.83,23.91 24.68,47.49 13.58,74.05l-1.44 5.32c3,13.18 6.57,17.36 15.39,26.21l2.39 2.38zm2133.32 -424.99c-113.05,5.05 -225.75,7.79 -338.78,11.94 -84.58,3.17 -168.8,5.54 -253.46,4.8 -5.13,-0.04 -77.63,-3.36 -78.09,-3.5 -17.46,-5.03 -43,-2.1 -49.73,-28.65 -8.09,-31.93 81,-43.56 95.99,-46.81 150.38,-32.15 302.71,-49.48 454.77,-71.19 70.89,-10.15 140.65,-19.17 211.72,-27.89l48.57 -5.96c37.96,-4.45 74.25,-10.66 113.03,-14.97 115.35,-12.76 227.1,-27.67 343.35,-38.02 56.97,-5.05 113.88,-9.41 170.92,-13.13 42.72,-2.75 86.06,-5.19 130.02,-7.23l6.32 -0.01 50.25 -2.66 48.3 -1.88 48.39 -1.16 49.64 -0.38c4.15,-0.96 9.04,-1.72 14.59,-2.22 6.05,-0.53 12.65,-0.82 19.76,-0.82 10.41,0 19.94,0.56 28.39,1.59 7.71,0.94 15.5,1.45 23.24,1.45l97.17 0c8.59,0 16.04,0.73 22.22,2.18 60.83,2.28 120.47,5.62 178.85,9.99 168.97,13.24 268.75,36.07 428.84,76.93 41.59,10.62 180.58,-5.58 230.45,-9.15 18.91,-1.34 37.83,-2.68 56.74,-4.04 39.88,-2 75.7,-4.02 107.29,-6.05 26.7,-1.72 47.12,-3.46 61.19,-5.14 13.51,-88.92 25.38,-184.89 41.54,-272.78 22.81,-124.14 34.15,-257.18 55.11,-382.58 10.39,-62.11 15.27,-114.45 23.17,-174.96 6.73,-51.52 16.61,-104.48 23.48,-157.53 4.74,-36.63 9.17,-73.43 14.24,-110 29.28,-198.37 52.87,-397.08 79.5,-595.84 36.03,-283.89 74.34,-593.77 88.46,-878.4 2.04,-40.51 6.63,-126.5 -3.22,-165 -10.89,-36.33 -59.16,140.26 -59.73,141.82 -31.71,88.24 -13.15,-89.83 18.92,-149.38 31.11,-57.8 67.32,-46.52 76.41,17.3 19.02,149.14 -10.25,382.7 -20.11,540.21 -5.57,89.2 -18.96,192.79 -28.41,282.83 -31.7,300.37 -71.9,597.35 -114.12,896.25 -34.65,246.01 -68.91,489.2 -105.76,735.01 -13.63,90.93 -25.7,180.17 -40.84,271.17 64.76,-4.98 135.17,-10.2 199.82,-13.57 29.51,-1.55 56.69,-4.32 84.96,-6.59 93.46,-7.43 188.51,-8.87 283.53,-17.24 67.15,-5.91 141.4,-7.69 209.77,-12.41 96.94,-6.67 194.13,-11.43 291.08,-16.98 30.36,-1.74 46.82,-7.39 77.89,-8.56 176.73,-6.76 354.72,-25.05 532.49,-34.1 144.73,-7.35 292.62,-17.64 436.77,-27.05 33.67,-2.18 75.29,-5.18 108.54,-5.3l0.06 -0.36c0.02,-2.24 0.88,-4.48 2.58,-6.19l0.44 -1.2 0 -1.72 0.57 0 8.83 -23.56c0.74,-3.54 2.89,-8.97 6.49,-16.23l3.31 -9.67c33.41,-78.55 56.74,-163.58 90.27,-245.4 241.58,-588.47 487.32,-1158.9 790.63,-1719.13l6.62 -12.23c4.88,-9.02 93.33,-182.15 111.5,-146.27 -18.41,75.68 -163.81,352.52 -205.05,433.94 -141.31,278.66 -272.88,545.48 -399.95,831.63 -54.6,122.96 -107.62,246.49 -159.39,370.66 -64.46,155.15 -125.28,311.06 -184,468.48 -4.63,12.38 -8.94,24.65 -13.27,37.12l-6.57 19.42c-1.83,3.66 -3.71,8.38 -5.59,13.97l-1.22 3.56c10.87,-0.2 20.94,-0.66 30.23,-1.38 11.69,-0.9 24.56,-1.4 38.62,-1.53l4.46 -0.02c43.76,-8.79 165.66,-11.03 214.43,-13.41 253.93,-12.35 514.12,-27.31 767.98,-29.57 16.28,-0.14 136.64,-4.68 122.8,31.77 -6.46,16.92 -78.89,19.68 -44.78,-2.44 9.85,-6.39 -62.4,-1.9 -67.02,-1.78 -294.74,6.14 -589.01,32.47 -883.56,45.24 -35.31,1.42 -63.27,5.93 -100.61,5.96 -10.55,0 -20.66,0.96 -30.2,2.88l-1.81 0.14c-9.79,0 -20.7,0.52 -32.57,1.51 -10.55,0.88 -21.16,1.38 -31.79,1.52l-3.66 7.31 -0.34 -0.17c-108.36,322.45 -213.12,617.09 -289.87,950.46 -98.63,433.96 -171.86,841.3 -110.2,1287.67 31.65,229.21 -39.15,25.74 -51.89,-54.42 -16.85,-105.92 -11.15,-320.97 -5.29,-432.66 14.43,-273.8 62.36,-534.49 124.17,-800.98 8.55,-36.45 17.33,-72.85 26.17,-109.22 24.7,-101.46 61.6,-218.05 92.14,-319.24 53.26,-176.51 112.58,-351.06 172.47,-525.42 -110.08,6.14 -219.22,13.41 -328.97,19.68 -185.68,10.61 -373.03,21.86 -558.18,37.49 -55.15,4.66 -116.23,6.17 -170.94,10.91 -25.43,2.2 -50.67,3.36 -76.79,5.64 -94.85,8.29 -192.15,10.71 -288.72,19.13 -68.2,5.93 -138.89,9.99 -207.9,15.29 -44.56,3.42 -84.2,1.67 -132,6.63 -64.86,6.76 -140.01,9.12 -207.05,14.15 -13.29,1.02 -171.26,7.44 -172.11,9.41 -0.68,1.57 -63.5,3.92 -71.08,4.02l-3.6 0.06 -3.07 18.3c-0.95,6.69 -1.43,11.87 -1.43,15.52 -7.41,61.36 -19.78,126.77 -29.73,187.9 103.68,92.55 200.53,227.48 235.54,364.5 37.07,145.1 47.13,258.32 34.76,407.01 -17.9,206.19 -46.97,322.22 -113.99,518.59 -114.43,332.29 -293.38,673.06 -470.83,976.57 -17.46,29.9 -35.71,62.81 -51.26,93.69 -0.48,1.16 -1.19,2.17 -2.06,2.97 -5.62,9.86 -10.73,18.27 -16.82,27.82l-40.8 70.37c-8.8,15.5 -17.59,30.55 -26.29,44.99l-8.6 14.1 -17.66 30.96c-18.48,70.05 -62.28,269.09 -126.41,315.4 -22.1,15.91 -57.39,-5.64 -49.26,-45.68 15.54,-76.33 56.24,-141.86 93.05,-209.72 13.65,-25.16 27.5,-49.97 41.49,-74.91 0.24,-2.26 0.85,-4.09 1.81,-5.53 11.54,-40.62 22.39,-81.19 32.5,-121.59 46.81,-188.74 84.78,-393.15 122.26,-584.22 11.77,-59.96 21.66,-122.16 34.69,-181.43 33.58,-147.23 56.45,-306.56 83.36,-454.96 40.72,-224.71 81.26,-449.96 115.84,-675.68 25.44,-166.79 53.68,-333.56 79.53,-500.43 -49.48,-41.94 -104.79,-77.32 -163.87,-104.02 -9.13,-4.11 -21.02,-14.06 -35.27,-20.9 -79.99,-38.36 -166.49,-79.46 -257.34,-74.12 -56.37,8.47 -135.97,9.25 -194.62,12.79 -158.53,9.65 -316.3,19.94 -474.75,30.69 -155.61,10.11 -311.1,19.24 -466.29,27.34 -48.75,2.56 -463.19,28.12 -471.1,26.37 -7.35,-1.61 -96.77,4.66 -111.89,5.5 -4.46,0.26 -51.54,3.68 -53.66,3.76l-49.99 2.22zm6939.4 322.6c0.57,-4.48 0.51,-8.33 -1.14,-9.91l-2.9 1.49c-17.8,17.83 -33.47,39.42 -50.67,58.43 -94.79,104.74 -176.9,168.36 -315.42,205.66 -95.8,18.37 -164.55,-8.41 -221.49,-87.72 -27.89,-40.98 -28.51,-60.62 -44.15,-100.94 -3.16,-8.13 -4.86,-11.47 -10.21,-18.24 -20.61,-14.25 -73.33,40.14 -108.9,61.62 -23.85,14.37 -69.39,44.5 -76.91,47.58 -22.01,9.02 -44.01,17.99 -65.97,27.21 8.81,-5.89 -21.11,2.44 -37.55,-1.4 -30.03,-7.05 -58.04,-29.24 -50.26,-63.59 9.88,-43.87 19.03,-60.64 -28.57,-16.84 -100.45,92.4 -219.76,246.59 -306.91,356.23 -201.39,253.33 -388.06,517.44 -570.55,784.61l-5.89 8.63c-117.51,183.81 -183.16,398.76 -292.64,582.73 -11.48,19.29 -97.2,158.03 -128.83,106.66 -35.97,-58.39 212.35,-439.91 255.85,-509.39l7.31 -11.69c7.5,-11.94 15.05,-23.81 22.62,-35.7 80.41,-124.76 123.16,-239.53 182.29,-373.15 33.48,-74.44 59.83,-152.45 89.5,-228.52 97.53,-244.53 202.51,-496.95 281.99,-747.51 9.01,-28.55 22.68,-72.93 9.24,-101.83 -11.45,-24.63 65.19,-23.02 20.32,131.71 -70.51,242.22 -152.07,468.14 -249.24,700.82 -37.81,90.38 -76.75,180.23 -115.77,270.07 -41.7,95.99 16.85,-2.46 30.37,-24.9l12.51 -20.04c165.51,-240.71 349.03,-469.85 535.81,-694.3 98.65,-118.49 205.22,-238.18 331.41,-327.89 26.34,-18.07 52.65,-46.5 77.83,-67.92 33.44,-27.12 73.71,-58.69 118.07,-62.3 41.62,0.68 68.13,66.76 36.96,68.09 -23.65,1.02 -26.18,-8.31 -57.57,2.6 -74.49,30.01 -150.38,97.07 -194.23,163.79 -49.22,74.88 -0.09,80.4 61.89,50.31 9.17,-4.46 18.33,-9.29 27.4,-13.95 61.52,-30.85 93.45,-64.25 145.76,-102.73 69.47,-45.68 85.88,16.29 104.78,73.99 117.09,216.71 269.53,146.42 426.66,18.51 43.9,-36.01 73.99,-66.88 112.6,-107.86 14.45,-15.32 58.21,-45.74 62,-64.44 2.62,-12.79 5.8,-22.5 7.87,-36 7.92,-57.7 26.78,-122.31 39.9,-179.89 23.76,-106.6 70.19,-334.69 122.12,-422.25 35.37,-59.62 11.87,81.94 10.61,88.42 -26.57,139.49 -74.05,278.55 -105.66,418.88 -6.81,29.03 -14.7,53.79 -20.56,83.68 -3.23,16.66 -10.35,33.78 -14.27,52.57 -6.9,33.27 -11.64,62.88 -19.94,96.5 -8.72,35.46 -13.33,61.64 -19.28,97.34 -2.06,12.32 -5.32,23.14 -8.47,35.08 9.05,-4.88 20.76,-36.97 26.71,-48 42.38,-78.47 139.71,-199.49 212.14,-251.02 41.22,-28.41 83.86,-44.04 132.41,-24.03l4.68 2.3 4.7 2.48c72.53,54.03 44.96,147.54 17.12,219.53 -36.48,94.37 -128.72,266.56 -251.9,237.21l-9.99 -4.29 -10.32 -5.36c-44.69,-30.13 -32.35,-105.87 -19.31,-87.75 18.39,25.53 16.55,79.66 81.12,61.8 78.21,-21.64 220.7,-204.97 191.09,-337.22 -17.32,-65.97 -62.88,-54.6 -110.46,-25.47 -70.81,46.81 -134.07,109.65 -174.77,184.59 -13,23.94 -28.72,45.95 -42.02,70.13 -8.7,15.85 -16.66,31.63 -23.89,48.2 -4.08,9.43 -8.69,18.7 -12.87,28.27 -7.23,16.51 -15.04,30.7 -34.76,32.31 -26.2,-0.8 -27.6,-36.39 -26.8,-55.71 1.53,-28.03 8.79,-56 12.49,-84 3.13,-23.7 12.05,-47.64 16.72,-71.61 3.54,-18.14 5.82,-36.36 8.16,-54.65zm324.38 150.93c-0.57,0.54 -0.58,0.57 0,0zm-2.24 4.58c2.26,-2.96 2.21,-2.94 0,0zm-517.83 22.58c-2.58,2.56 -2.58,2.58 0,0zm62.93 -46.13c-1.87,1.83 -1.98,1.94 0,0zm0.46 -4.79c-2.76,2.88 -3.4,3.54 0,0zm-1329.5 -148.93c-2.1,4.76 0.36,0.98 0,0zm-110.42 331.95c-2.03,2.03 -1.58,1.58 0,0zm-659.53 1503.88c47.43,-78.77 -14.57,33.52 -1.56,10.03 22.35,-40.31 91.93,-169.36 103.3,-204.13 -6.73,1.3 -164.18,295.41 -111.23,209.47l9.49 -15.38zm102 -189.7c6.15,-13.21 7.45,-14.75 0,0zm9.39 -26.42c5.04,-0.33 -5.78,15.95 0,0zm699.64 -1009.32c-0.66,0.87 -0.75,1.01 0,0zm118.04 -151.22c0.94,-1.36 0.96,-1.39 0,0zm3.14 -6.39c-0.82,1.05 -0.8,1.01 0,0zm57.07 -922.72c73.45,-30.77 19.48,26.62 -7.32,47.36 -62.09,48.07 -102.65,95 -133.27,168.58 -5.24,10.34 -31.15,58.94 -48.84,37.55 -9.39,-11.34 -2.33,-31.72 0.94,-43.73 31.11,-90.95 101.13,-169.56 188.49,-209.76zm12.74 36.93c-0.74,0 -1.4,0 0,0zm-13.34 6.59c0,0.64 0,0.98 0,0zm0 2.08c0,-0.66 0,-0.96 0,0zm-814.3 637.61c-52.59,-29.77 -75.69,-146.93 -57,-204.48 20.28,-62.6 72.85,-114.79 53.39,0.21 -28.73,204.13 64.58,212.12 230.98,141.47 106.56,-46.95 180.91,-100.23 278.08,-159.81 70.41,-43.2 88.22,-30.86 16.1,27.57 -29.31,23.74 -60.68,46.86 -91.58,68.55 -96.19,64.09 -284.1,173.02 -401.59,137.16l-28.39 -10.66zm442.72 -135.27c-1.3,-0.88 -1.21,-0.64 0,0zm0.57 -1.69c2.24,1.53 2.56,0.17 0,0zm35.91 -21.84c-2.46,1.62 -2.76,1.81 0,0zm-395.13 -447.18c20.96,-54.29 42.3,-53.25 33.99,8.05 -1.3,9.36 -14.81,111.67 -19.6,116.07 -13.61,12.47 -37.21,0.12 -36.96,-28.67 0.37,-41.49 7.77,-54.8 22.56,-95.45zm-19.9 109.47c-1.21,0.3 0.94,1.14 0,0zm-1.28 -1.06c0.48,0 0.9,0 0,0zm5.68 10.25c-0.48,0 -0.9,0 0,0zm-525.23 169.58c-0.12,0.04 -0.16,0.04 0,0zm-1926.05 -1572.95c-1.71,0.12 -0.58,0.07 0,0zm-2443.05 1333.5c66.08,-3.48 137.67,-5.56 203.35,-13.11 46.5,-5.35 101.44,-4.36 150.06,-8.27 49.67,-4 89.71,-7.71 140.54,-9.38 43.88,-1.46 93.17,-5.83 137.79,-8.35l8.83 -0.51 12.33 0 51.24 -2.22c2.93,-0.54 6.01,-0.82 9.3,-0.82 10.59,0 20.79,-0.77 31.4,-1.42 1.28,-0.93 2.85,-1.5 4.51,-1.59l21.18 -1.53 22.36 -1.12 23.83 -0.41c16.11,0 32.69,-0.52 49.58,-1.5 17.34,-1.02 29.13,-1.55 35.29,-1.55 66.26,-4 128.96,-8.07 187.86,-12.12l255.1 -17.83c109.78,-6.73 216.3,-13.38 326.24,-18.08 58.4,-2.48 -226.27,-43.76 -259.75,-47.04l-13.57 -1.33c-58.82,-5.52 -118.33,-9.7 -178.35,-12.49 -59.66,-2.76 -119.92,-4.15 -180.73,-4.15 -129.48,0 -258.43,3.93 -386.71,11.74 -212.64,13.13 -416.89,38.39 -627.77,66.67l-48.3 6.56c-158.13,21.71 -315.7,46.83 -473.61,69.87 -27.35,3.99 -129.22,17.74 -144.99,26.29 44.26,10.07 367.42,-4.86 431.42,-7.3 54.4,-2.06 108.81,-4.25 163.21,-6.75l48.35 -2.25zm1665.65 2987.45c-0.62,0.48 2.67,-0.32 0,0zm-27.82 -0.02c-1.96,0 1.04,0.08 0,0zm2933.23 -3359.86c-4.28,10.97 -2.78,7.18 0,0zm124.02 -319.41c0,-0.04 0,-0.09 0,0zm-2520.91 602.94l-6.99 0 -36.11 2.24c-7.41,0.54 -14.31,0.8 -20.66,0.8l-18.07 0c-20.64,2.06 -39.38,3.7 -56.08,4.9 -33.51,2.36 -66.93,3.17 -100.41,5.71 64.73,31.53 125.26,54.51 188.44,90.75 32.23,18.98 60.64,36.77 91.09,58.66l4.48 4.22 -0.48 0.48 9.75 7.73 5.5 -30.41c2.49,-14.72 4.79,-29.53 6.8,-44.15l12.15 -89.62 1.1 -3.23c1.21,-2.62 1.83,-5.76 1.83,-9.26l0.4 -6.01c-6.27,0.73 -12.51,1.12 -18.78,1.12 -13.54,1.35 -25.75,3.04 -39.28,3.04l-15.36 1.58 -9.33 1.44zm-502.8 3004.54c7.28,-14.47 43.68,-106.88 13.45,-40.42 -0.78,1.72 -33.53,79.71 -13.45,40.42zm590.84 -2746.88c-111.28,684.89 -225.4,1380.77 -364.98,2060.11 -20.27,98.77 -42.57,196.64 -66.88,294.52 293.65,-502.62 719.85,-1237.56 668.89,-1832.88 -21.45,-213.66 -79.17,-371.69 -237.02,-521.75zm-11075.1 -2092.08c1.35,-2.94 35.56,-77.08 50.7,-126.08 3.72,-12.04 6.28,-22.55 6.91,-30.04 0.57,-6.78 -0.39,-10.87 -3.52,-10.99 -1.38,-0.05 -3.22,0.56 -5.57,1.9 -81.7,46.92 -259.71,395.7 -307.31,488.96l-2.37 4.63c-53.44,105.8 -103.54,213.24 -151.85,321.46 -48.3,108.18 -94.9,217.3 -141.31,326.37l-0.08 0.16c-6.43,15.17 -11.99,28.26 -21.28,42l-0.07 0.13c-2.73,3.27 -12.14,29.33 -15.33,38.19l-1.1 3.01c-5.66,13.38 -10.59,24.75 -14.47,33.69 -4.2,9.68 -7.13,16.46 -8.47,19.75 1.04,-1.65 2.5,-4.05 4.38,-7.27 3.18,-6.6 8.05,-16.36 15.06,-28.57l4.25 -7.42c19.29,-33.15 38.67,-66.38 58.05,-99.62 123.94,-212.54 249.05,-427.1 365.94,-642.6l0.04 -0.05c29.23,-54.11 57.86,-108.28 85.74,-162.7 27.89,-54.45 55.13,-109.32 81.64,-164.84l0.04 -0.09zm8036.59 2647.41c-26.88,9.99 -51.56,13.75 -80.14,9.81 -26.27,-5.53 -40.33,-17.14 -55.73,-38.2 -31.27,-49.76 45.64,-151.82 76.53,-187.14 52.02,-59.46 174.98,-191.96 262.29,-171.16 41.24,17.8 53.64,75.19 25.27,74.5 -109.75,1.6 -178.46,55.1 -248.02,135.04 -13.56,16.61 -115.02,142.95 -32.35,136.7 80.71,-9.99 196.55,-102.76 260,-154.48 27.65,-22.55 55.64,-29.79 86.4,-5.98 21.94,21.68 21.35,55.53 31.55,86.6 45.2,137.63 104.94,184.39 251.36,162.29 161.61,-32.41 289.43,-157.33 396.43,-274.76 19.16,-21.06 118.51,-97.6 59.8,-18.62 -15.51,20.88 -11.8,20.92 -33.62,44.64 -125.86,136.71 -257.95,284.51 -455.74,302.55 -120.51,6.91 -207.8,-39.55 -253.2,-154.8 -10.05,-25.54 -20.61,-71.95 -26.94,-99.43 -19.38,4.24 -30.51,7.21 -38.72,10.61 -34.69,14.27 -34.78,24.74 -69.02,49.49 -47.62,34.29 -104.4,73.1 -156.15,92.35zm783.78 4.96c-1.12,1.13 -1.38,1.38 0,0zm72.53 -52.9c0.8,-0.8 -1.34,1.34 0,0zm2.26 -7.35c-3.06,3.24 -3.04,3.24 0,0zm-1702.86 872.46c-0.62,2.22 -0.62,2.2 0,0zm591.56 -719.22c-0.39,0 -0.82,0 0,0zm0 0c-0.39,0 -0.82,0 0,0zm-49.9 -4.08c0.04,0.12 0.08,0.14 0,0zm418.37 -2232.17c0.34,-0.62 -0.16,0.34 0,0zm1.46 -7.55c-1.1,1.53 -1.12,1.58 0,0zm88.52 -177.31c-0.32,0.8 -0.3,0.73 0,0zm8.53 -14.63c0.12,0 0.24,0 0,0zm36.88 -199.13c-24.53,-33.03 -71.17,12.59 -90.03,30.95 -51.41,49.99 -67.42,88.06 -100.52,150.76 -39.58,78.94 -71.87,167.28 -106.7,249.26 -23.22,54.61 -42.44,118.61 -62.76,175.57 -28.48,78.77 -51.75,145.06 -73.53,226.43 -16.17,60.38 -42.54,113.31 14.88,20.66 43.39,-69.98 87.57,-137.09 132.83,-205.78 15.23,-23.14 30.01,-46.28 44.4,-69.96 27.48,-45.72 53.91,-91.96 79.91,-138.53 60.51,-108.78 131.34,-222.95 161.49,-344.83 7.11,-28.74 14.84,-67.06 0.03,-94.52zm-1278.13 2484.17c-6.59,6.06 -28.83,36.23 -12.19,40.97 20.45,3.02 83.4,6.62 95.69,-12.21 15.63,-23.96 12.35,-88.93 -29.73,-63.62 -4.22,2.52 -8.4,5.32 -12.59,7.9 -13.97,8.36 -28.53,16.69 -41.18,26.95zm192.51 -105.35c0.38,-0.61 0.34,-0.61 0,0zm47.28 -27.43c0.07,-0.06 0.08,-0.06 0,0zm-586.51 155.51c8.05,-19.26 14.11,-50.01 -8.53,-62.01 -12.05,-6.41 -36.38,13.13 -46.76,19.88 -6.17,3.98 -29.81,16.63 -32.21,18.96 -9.63,9.31 -24.15,35.4 -3.36,41.84 20.27,6.27 77.26,4.7 89.62,-16.34l1.23 -2.33zm105.62 -125.24c2.3,-3.92 2.26,-3.94 0,0zm47.93 -23.92c0.84,-1.38 0.8,-1.38 0,0zm1.14 -6.5c0.26,-0.08 0.42,-0.24 0,0zm-424.66 47.84c-3.17,-2.24 -2.31,-0.66 0,0zm-0.46 -2.44c5.48,3.54 6.98,0.46 0,0zm41.29 -24.61c3.61,-2.36 -6.78,5.35 0,0zm-468.74 -501.55c2.12,-5.62 40.29,-100.62 55.25,-73.95 7.23,12.94 -22.64,138.23 -24.32,173.04 -0.96,19.88 -8.43,38.48 -32.81,25.8 -36.54,-19.02 -6.51,-101.41 1.88,-124.9zm-15.39 105.52c-1.49,0.52 0.88,1.28 0,0zm-1.74 -1.06c0.82,0 1.4,0 0,0zm7.07 11.99c-0.98,0 -1.74,0 0,0z"/>
  </g>
 </g>
</svg>
